<svg viewBox="0 0 21 21" fill="none" xmlns="http://www.w3.org/2000/svg">
<path fill-rule="evenodd" clip-rule="evenodd" d="M10.8076 8.22182C11.1981 8.61234 11.8313 8.61234 12.2218 8.22182C12.6123 7.83129 12.6123 7.19813 12.2218 6.8076L10.427 5.01283C14.0942 5.2335 17 8.27741 17 12C17 15.866 13.866 19 10 19C6.13401 19 3 15.866 3 12C3 11.4477 2.55228 11 2 11C1.44772 11 1 11.4477 1 12C1 16.9706 5.02944 21 10 21C14.9706 21 19 16.9706 19 12C19 7.32837 15.4406 3.48806 10.8859 3.04306L12.2218 1.70714C12.6123 1.31661 12.6123 0.683448 12.2218 0.292924C11.8313 -0.0976004 11.1981 -0.0976004 10.8076 0.292924L7.55025 3.55026C7.15973 3.94079 7.15973 4.57395 7.55025 4.96448L10.8076 8.22182Z" fill="currentColor"/>
</svg>
